<svg width="400" height="150" viewBox="0 0 1440 270" fill="none" xmlns="http://www.w3.org/2000/svg">
<path d="M-10 1V-9H0H1439H1449V1V147.803V153.144L1444.56 156.114L1439 147.803C1444.56 156.114 1444.56 156.116 1444.56 156.118L1444.55 156.124L1444.53 156.137L1444.46 156.179C1444.41 156.214 1444.34 156.26 1444.25 156.319C1444.07 156.437 1443.81 156.604 1443.48 156.818C1442.81 157.246 1441.84 157.861 1440.56 158.646C1438 160.216 1434.22 162.464 1429.22 165.249C1419.23 170.819 1404.37 178.537 1384.71 187.27C1345.39 204.737 1286.86 226.262 1209.59 242.779C1122.55 261.385 845.148 277.931 541.526 216.803C317.177 171.636 99.5924 195.494 2.13281 216.77L-10 219.419V207V1Z" fill="#FF6B57" stroke="#423B3B" stroke-width="20"/>
</svg>
